<svg id="visual" viewBox="0 0 900 600" width="900" height="600" xmlns="http://www.w3.org/2000/svg" xmlns:xlink="http://www.w3.org/1999/xlink" version="1.1"><g transform="translate(507.0107952616222 313.54131222016997)"><path d="M90.6 -150.7C129.2 -116.1 180.6 -111 190.8 -87.5C201 -63.9 170.1 -22 166.7 26.2C163.3 74.5 187.5 128.9 171.5 150.2C155.5 171.5 99.5 159.6 51.3 173C3.1 186.5 -37.2 225.2 -78.2 229.8C-119.2 234.4 -160.9 205 -209.8 169.9C-258.8 134.8 -315 94.1 -305.9 53.5C-296.9 13 -222.6 -27.4 -178.2 -63.4C-133.8 -99.5 -119.3 -131.4 -94.6 -172.4C-69.9 -213.5 -35 -263.7 -4.5 -256.7C26 -249.7 51.9 -185.4 90.6 -150.7" fill="#ade8e8"></path></g></svg>